<svg xmlns="http://www.w3.org/2000/svg" viewBox="0 0 207.63 28.68"><defs><style>.cls-1,.cls-2{fill:#0a090f;}.cls-1{fill-opacity:0;}.cls-3{fill:#fff;}</style></defs><g id="Layer_2" data-name="Layer 2"><g id="Layer_1-2" data-name="Layer 1"><rect class="cls-1" width="207.63" height="28.68"/><rect class="cls-2" width="80.74" height="28.68"/><path class="cls-3" d="M4.29,4.29V6.55h8.94V24.38h2.26V6.55h8.89V4.29Zm40.52,0v8.9h-16V4.29H26.5V24.38h2.26v-8.9H44.81v8.9h2.28V4.29Zm5.43,20.09h2.27V4.29H50.24ZM74.19,4.29V21.81L59.45,4.29H56.36V24.38h2.26V6.86L73.35,24.38h3.1V4.29Z"/><rect class="cls-1" x="80.74" width="126.89" height="28.68"/><path class="cls-2" d="M96.36,16.21h0V9.54a1.1,1.1,0,0,0-.15-.71,1.12,1.12,0,0,0-.72-.16H88.77v8.4h6.72c.38,0,.61-.05.72-.17A1.09,1.09,0,0,0,96.36,16.21ZM85,24.38V7H97.86a2,2,0,0,1,2.21,2.2h0v7.29a2,2,0,0,1-2.21,2.2H88.77v5.66Zm26.32-15-3.61,9.94H115Zm9.17,15h-3.68L115.58,21h-8.42l-1.26,3.43h-3.65L108.92,7h4.91Zm15.19-3.88V7h3.42V24.38h-3.4l-8.57-13.53V24.38h-3.43V7h3.52Zm19.66,1.37h0V9.54a1.1,1.1,0,0,0-.15-.71,1.09,1.09,0,0,0-.71-.16h-6.67V22.73h6.67a1.1,1.1,0,0,0,.71-.15A1.08,1.08,0,0,0,155.37,21.87ZM144.1,24.38V7h12.8a2,2,0,0,1,2.21,2.2h0v13a2,2,0,0,1-2.21,2.2H144.1Zm27.07-15-3.61,9.94h7.23Zm9.17,15h-3.69L175.4,21H167l-1.26,3.43h-3.66L168.74,7h4.91Zm6.53-13.47V24.38h-3.32V7h4l5.77,11.07,6-11.07h4V24.38H200V10.91l-5.25,9.7H192Z"/></g></g></svg>